# MagicaVoxel @ Ephtracy

# group
g barierka

# material
mtllib barierka.mtl
usemtl palette

# normals
vn -1 0 0
vn 1 0 0
vn 0 0 1
vn 0 0 -1
vn 0 -1 0
vn 0 1 0

# texcoords
vt 0.849609 0.5
vt 0.978516 0.5
vt 0.982422 0.5
vt 0.986328 0.5
vt 0.990234 0.5

# verts
v -10 0 10
v -10 0 7
v -10 3 10
v -10 3 7
v -10 13 9
v -10 13 8
v -10 14 10
v -10 14 9
v -10 14 8
v -10 14 7
v -10 16 10
v -10 16 7
v -10 18 10
v -10 18 9
v -10 18 8
v -10 18 7
v -10 19 10
v -10 19 9
v -10 19 8
v -10 19 7
v -10 20 10
v -10 20 7
v -7 16 9
v -7 16 8
v -7 17 9
v -7 17 8
v -6 15 9
v -6 15 8
v -6 16 9
v -6 16 8
v -5 14 9
v -5 14 8
v -5 15 9
v -5 15 8
v -4 13 9
v -4 13 8
v -4 14 9
v -4 14 8
v -3 12 9
v -3 12 8
v -3 13 9
v -3 13 8
v -2 11 9
v -2 11 8
v -2 12 9
v -2 12 8
v -1 10 9
v -1 10 8
v -1 11 9
v -1 11 8
v 1 11 9
v 1 11 8
v 1 12 9
v 1 12 8
v 2 12 9
v 2 12 8
v 2 13 9
v 2 13 8
v 3 13 9
v 3 13 8
v 3 14 9
v 3 14 8
v 4 14 9
v 4 14 8
v 4 15 9
v 4 15 8
v 5 15 9
v 5 15 8
v 5 16 9
v 5 16 8
v 6 16 9
v 6 16 8
v 6 17 9
v 6 17 8
v 7 17 9
v 7 17 8
v 7 18 9
v 7 18 8
v 8 0 9
v 8 0 8
v 8 2 9
v 8 2 8
v 8 5 9
v 8 5 8
v 8 8 9
v 8 8 8
v 8 15 9
v 8 15 8
v 8 17 9
v 8 17 8
v 8 18 10
v 8 18 9
v 8 18 8
v 8 18 7
v 8 19 10
v 8 19 9
v 8 19 8
v 8 19 7
v 8 20 9
v 8 20 8
v 9 0 10
v 9 0 9
v 9 0 8
v 9 0 7
v 9 2 9
v 9 2 8
v 9 3 10
v 9 3 9
v 9 3 8
v 9 3 7
v 9 6 10
v 9 6 9
v 9 7 10
v 9 7 9
v 9 14 10
v 9 14 9
v 9 14 8
v 9 14 7
v 9 15 9
v 9 15 8
v 9 16 10
v 9 16 9
v 9 16 8
v 9 16 7
v 9 18 10
v 9 18 9
v 9 18 8
v 9 18 7
v 9 19 10
v 9 19 9
v 9 19 8
v 9 19 7
v 9 20 10
v 9 20 9
v 9 20 8
v 9 20 7
v -9 0 10
v -9 0 9
v -9 0 8
v -9 0 7
v -9 2 9
v -9 2 8
v -9 3 10
v -9 3 9
v -9 3 8
v -9 3 7
v -9 6 10
v -9 6 9
v -9 7 10
v -9 7 9
v -9 14 10
v -9 14 9
v -9 14 8
v -9 14 7
v -9 15 9
v -9 15 8
v -9 16 10
v -9 16 9
v -9 16 8
v -9 16 7
v -9 18 10
v -9 18 9
v -9 18 8
v -9 18 7
v -9 19 10
v -9 19 9
v -9 19 8
v -9 19 7
v -9 20 10
v -9 20 9
v -9 20 8
v -9 20 7
v -8 0 9
v -8 0 8
v -8 2 9
v -8 2 8
v -8 5 9
v -8 5 8
v -8 8 9
v -8 8 8
v -8 15 9
v -8 15 8
v -8 17 9
v -8 17 8
v -8 18 10
v -8 18 9
v -8 18 8
v -8 18 7
v -8 19 10
v -8 19 9
v -8 19 8
v -8 19 7
v -8 20 9
v -8 20 8
v -7 17 9
v -7 17 8
v -7 18 9
v -7 18 8
v -6 16 9
v -6 16 8
v -6 17 9
v -6 17 8
v -5 15 9
v -5 15 8
v -5 16 9
v -5 16 8
v -4 14 9
v -4 14 8
v -4 15 9
v -4 15 8
v -3 13 9
v -3 13 8
v -3 14 9
v -3 14 8
v -2 12 9
v -2 12 8
v -2 13 9
v -2 13 8
v -1 11 9
v -1 11 8
v -1 12 9
v -1 12 8
v 1 10 9
v 1 10 8
v 1 11 9
v 1 11 8
v 2 11 9
v 2 11 8
v 2 12 9
v 2 12 8
v 3 12 9
v 3 12 8
v 3 13 9
v 3 13 8
v 4 13 9
v 4 13 8
v 4 14 9
v 4 14 8
v 5 14 9
v 5 14 8
v 5 15 9
v 5 15 8
v 6 15 9
v 6 15 8
v 6 16 9
v 6 16 8
v 7 16 9
v 7 16 8
v 7 17 9
v 7 17 8
v 10 0 10
v 10 0 7
v 10 3 10
v 10 3 7
v 10 13 9
v 10 13 8
v 10 14 10
v 10 14 9
v 10 14 8
v 10 14 7
v 10 16 10
v 10 16 7
v 10 18 10
v 10 18 7
v 10 19 10
v 10 19 7
v 10 20 10
v 10 20 7
v -10 0 10
v -10 3 10
v -10 14 10
v -10 16 10
v -10 18 10
v -10 19 10
v -10 20 10
v -9 0 10
v -9 3 10
v -9 6 10
v -9 7 10
v -9 14 10
v -9 16 10
v -9 18 10
v -9 19 10
v -9 20 10
v -8 18 10
v -8 19 10
v 8 18 10
v 8 19 10
v 9 0 10
v 9 3 10
v 9 6 10
v 9 7 10
v 9 14 10
v 9 16 10
v 9 18 10
v 9 19 10
v 9 20 10
v 10 0 10
v 10 3 10
v 10 14 10
v 10 16 10
v 10 18 10
v 10 19 10
v 10 20 10
v -9 0 9
v -9 2 9
v -9 3 9
v -9 6 9
v -9 7 9
v -9 14 9
v -9 15 9
v -9 16 9
v -9 18 9
v -9 19 9
v -9 20 9
v -8 0 9
v -8 2 9
v -8 5 9
v -8 8 9
v -8 15 9
v -8 17 9
v -8 18 9
v -8 19 9
v -8 20 9
v -7 16 9
v -7 17 9
v -7 18 9
v -6 15 9
v -6 16 9
v -6 17 9
v -5 14 9
v -5 15 9
v -5 16 9
v -4 13 9
v -4 14 9
v -4 15 9
v -3 12 9
v -3 13 9
v -3 14 9
v -2 11 9
v -2 12 9
v -2 13 9
v -1 10 9
v -1 11 9
v -1 12 9
v 1 10 9
v 1 11 9
v 1 12 9
v 2 11 9
v 2 12 9
v 2 13 9
v 3 12 9
v 3 13 9
v 3 14 9
v 4 13 9
v 4 14 9
v 4 15 9
v 5 14 9
v 5 15 9
v 5 16 9
v 6 15 9
v 6 16 9
v 6 17 9
v 7 16 9
v 7 17 9
v 7 18 9
v 8 0 9
v 8 2 9
v 8 5 9
v 8 8 9
v 8 15 9
v 8 17 9
v 8 18 9
v 8 19 9
v 8 20 9
v 9 0 9
v 9 2 9
v 9 3 9
v 9 6 9
v 9 7 9
v 9 14 9
v 9 15 9
v 9 16 9
v 9 18 9
v 9 19 9
v 9 20 9
v -9 0 8
v -9 2 8
v -9 3 8
v -9 14 8
v -9 15 8
v -9 16 8
v -9 18 8
v -9 19 8
v -9 20 8
v -8 0 8
v -8 2 8
v -8 5 8
v -8 8 8
v -8 15 8
v -8 17 8
v -8 18 8
v -8 19 8
v -8 20 8
v -7 16 8
v -7 17 8
v -7 18 8
v -6 15 8
v -6 16 8
v -6 17 8
v -5 14 8
v -5 15 8
v -5 16 8
v -4 13 8
v -4 14 8
v -4 15 8
v -3 12 8
v -3 13 8
v -3 14 8
v -2 11 8
v -2 12 8
v -2 13 8
v -1 10 8
v -1 11 8
v -1 12 8
v 1 10 8
v 1 11 8
v 1 12 8
v 2 11 8
v 2 12 8
v 2 13 8
v 3 12 8
v 3 13 8
v 3 14 8
v 4 13 8
v 4 14 8
v 4 15 8
v 5 14 8
v 5 15 8
v 5 16 8
v 6 15 8
v 6 16 8
v 6 17 8
v 7 16 8
v 7 17 8
v 7 18 8
v 8 0 8
v 8 2 8
v 8 5 8
v 8 8 8
v 8 15 8
v 8 17 8
v 8 18 8
v 8 19 8
v 8 20 8
v 9 0 8
v 9 2 8
v 9 3 8
v 9 14 8
v 9 15 8
v 9 16 8
v 9 18 8
v 9 19 8
v 9 20 8
v -10 0 7
v -10 3 7
v -10 14 7
v -10 16 7
v -10 18 7
v -10 19 7
v -10 20 7
v -9 0 7
v -9 3 7
v -9 14 7
v -9 16 7
v -9 18 7
v -9 19 7
v -9 20 7
v -8 18 7
v -8 19 7
v 8 18 7
v 8 19 7
v 9 0 7
v 9 3 7
v 9 14 7
v 9 16 7
v 9 18 7
v 9 19 7
v 9 20 7
v 10 0 7
v 10 3 7
v 10 14 7
v 10 16 7
v 10 18 7
v 10 19 7
v 10 20 7
v -10 0 10
v -9 0 10
v 9 0 10
v 10 0 10
v -9 0 9
v -8 0 9
v 8 0 9
v 9 0 9
v -9 0 8
v -8 0 8
v 8 0 8
v 9 0 8
v -10 0 7
v -9 0 7
v 9 0 7
v 10 0 7
v -8 5 9
v 8 5 9
v -8 5 8
v 8 5 8
v -9 6 10
v 9 6 10
v -9 6 9
v 9 6 9
v -1 10 9
v 1 10 9
v -1 10 8
v 1 10 8
v -2 11 9
v -1 11 9
v 1 11 9
v 2 11 9
v -2 11 8
v -1 11 8
v 1 11 8
v 2 11 8
v -3 12 9
v -2 12 9
v 2 12 9
v 3 12 9
v -3 12 8
v -2 12 8
v 2 12 8
v 3 12 8
v -4 13 9
v -3 13 9
v 3 13 9
v 4 13 9
v -4 13 8
v -3 13 8
v 3 13 8
v 4 13 8
v -5 14 9
v -4 14 9
v 4 14 9
v 5 14 9
v -5 14 8
v -4 14 8
v 4 14 8
v 5 14 8
v -6 15 9
v -5 15 9
v 5 15 9
v 6 15 9
v -6 15 8
v -5 15 8
v 5 15 8
v 6 15 8
v -7 16 9
v -6 16 9
v 6 16 9
v 7 16 9
v -7 16 8
v -6 16 8
v 6 16 8
v 7 16 8
v -8 17 9
v -7 17 9
v 7 17 9
v 8 17 9
v -8 17 8
v -7 17 8
v 7 17 8
v 8 17 8
v -9 18 10
v -8 18 10
v 8 18 10
v 9 18 10
v -9 18 9
v -8 18 9
v 8 18 9
v 9 18 9
v -9 18 8
v -8 18 8
v 8 18 8
v 9 18 8
v -9 18 7
v -8 18 7
v 8 18 7
v 9 18 7
v -9 7 10
v 9 7 10
v -9 7 9
v 9 7 9
v -8 8 9
v 8 8 9
v -8 8 8
v 8 8 8
v -1 11 9
v 1 11 9
v -1 11 8
v 1 11 8
v -2 12 9
v -1 12 9
v 1 12 9
v 2 12 9
v -2 12 8
v -1 12 8
v 1 12 8
v 2 12 8
v -3 13 9
v -2 13 9
v 2 13 9
v 3 13 9
v -3 13 8
v -2 13 8
v 2 13 8
v 3 13 8
v -4 14 9
v -3 14 9
v 3 14 9
v 4 14 9
v -4 14 8
v -3 14 8
v 3 14 8
v 4 14 8
v -5 15 9
v -4 15 9
v 4 15 9
v 5 15 9
v -5 15 8
v -4 15 8
v 4 15 8
v 5 15 8
v -6 16 9
v -5 16 9
v 5 16 9
v 6 16 9
v -6 16 8
v -5 16 8
v 5 16 8
v 6 16 8
v -7 17 9
v -6 17 9
v 6 17 9
v 7 17 9
v -7 17 8
v -6 17 8
v 6 17 8
v 7 17 8
v -8 18 9
v -7 18 9
v 7 18 9
v 8 18 9
v -8 18 8
v -7 18 8
v 7 18 8
v 8 18 8
v -9 19 10
v -8 19 10
v 8 19 10
v 9 19 10
v -9 19 9
v -8 19 9
v 8 19 9
v 9 19 9
v -9 19 8
v -8 19 8
v 8 19 8
v 9 19 8
v -9 19 7
v -8 19 7
v 8 19 7
v 9 19 7
v -10 20 10
v -9 20 10
v 9 20 10
v 10 20 10
v -9 20 9
v -8 20 9
v 8 20 9
v 9 20 9
v -9 20 8
v -8 20 8
v 8 20 8
v 9 20 8
v -10 20 7
v -9 20 7
v 9 20 7
v 10 20 7

# faces
f 3/5/1 2/5/1 1/5/1
f 4/5/1 2/5/1 3/5/1
f 5/3/1 4/3/1 3/3/1
f 6/3/1 4/3/1 5/3/1
f 7/3/1 5/3/1 3/3/1
f 8/4/1 6/4/1 5/4/1
f 8/3/1 5/3/1 7/3/1
f 9/3/1 4/3/1 6/3/1
f 9/4/1 6/4/1 8/4/1
f 10/3/1 4/3/1 9/3/1
f 11/4/1 8/4/1 7/4/1
f 11/4/1 9/4/1 8/4/1
f 11/4/1 10/4/1 9/4/1
f 12/4/1 10/4/1 11/4/1
f 13/2/1 12/2/1 11/2/1
f 14/2/1 12/2/1 13/2/1
f 15/2/1 12/2/1 14/2/1
f 16/2/1 12/2/1 15/2/1
f 17/1/1 14/1/1 13/1/1
f 18/2/1 15/2/1 14/2/1
f 18/1/1 14/1/1 17/1/1
f 19/1/1 16/1/1 15/1/1
f 19/2/1 15/2/1 18/2/1
f 20/1/1 16/1/1 19/1/1
f 21/2/1 18/2/1 17/2/1
f 21/2/1 19/2/1 18/2/1
f 21/2/1 20/2/1 19/2/1
f 22/2/1 20/2/1 21/2/1
f 25/2/1 24/2/1 23/2/1
f 26/2/1 24/2/1 25/2/1
f 29/1/1 28/1/1 27/1/1
f 30/1/1 28/1/1 29/1/1
f 33/2/1 32/2/1 31/2/1
f 34/2/1 32/2/1 33/2/1
f 37/1/1 36/1/1 35/1/1
f 38/1/1 36/1/1 37/1/1
f 41/2/1 40/2/1 39/2/1
f 42/2/1 40/2/1 41/2/1
f 45/1/1 44/1/1 43/1/1
f 46/1/1 44/1/1 45/1/1
f 49/2/1 48/2/1 47/2/1
f 50/2/1 48/2/1 49/2/1
f 53/1/1 52/1/1 51/1/1
f 54/1/1 52/1/1 53/1/1
f 57/2/1 56/2/1 55/2/1
f 58/2/1 56/2/1 57/2/1
f 61/1/1 60/1/1 59/1/1
f 62/1/1 60/1/1 61/1/1
f 65/2/1 64/2/1 63/2/1
f 66/2/1 64/2/1 65/2/1
f 69/1/1 68/1/1 67/1/1
f 70/1/1 68/1/1 69/1/1
f 73/2/1 72/2/1 71/2/1
f 74/2/1 72/2/1 73/2/1
f 77/1/1 76/1/1 75/1/1
f 78/1/1 76/1/1 77/1/1
f 81/5/1 80/5/1 79/5/1
f 82/5/1 80/5/1 81/5/1
f 83/3/1 82/3/1 81/3/1
f 84/3/1 82/3/1 83/3/1
f 87/3/1 86/3/1 85/3/1
f 88/3/1 86/3/1 87/3/1
f 89/4/1 88/4/1 87/4/1
f 90/4/1 88/4/1 89/4/1
f 95/1/1 92/1/1 91/1/1
f 96/2/1 93/2/1 92/2/1
f 96/1/1 92/1/1 95/1/1
f 97/1/1 94/1/1 93/1/1
f 97/2/1 93/2/1 96/2/1
f 98/1/1 94/1/1 97/1/1
f 99/2/1 97/2/1 96/2/1
f 100/2/1 97/2/1 99/2/1
f 105/5/1 102/5/1 101/5/1
f 106/5/1 104/5/1 103/5/1
f 107/5/1 105/5/1 101/5/1
f 108/5/1 105/5/1 107/5/1
f 109/5/1 104/5/1 106/5/1
f 110/5/1 104/5/1 109/5/1
f 111/2/1 108/2/1 107/2/1
f 112/2/1 108/2/1 111/2/1
f 115/2/1 114/2/1 113/2/1
f 116/2/1 114/2/1 115/2/1
f 117/2/1 110/2/1 109/2/1
f 118/2/1 110/2/1 117/2/1
f 119/4/1 116/4/1 115/4/1
f 120/4/1 118/4/1 117/4/1
f 121/4/1 119/4/1 115/4/1
f 122/4/1 119/4/1 121/4/1
f 123/4/1 118/4/1 120/4/1
f 124/4/1 118/4/1 123/4/1
f 125/2/1 122/2/1 121/2/1
f 126/2/1 122/2/1 125/2/1
f 127/2/1 124/2/1 123/2/1
f 128/2/1 124/2/1 127/2/1
f 133/2/1 130/2/1 129/2/1
f 134/2/1 130/2/1 133/2/1
f 135/2/1 132/2/1 131/2/1
f 136/2/1 132/2/1 135/2/1
f 137/5/2 138/5/2 141/5/2
f 139/5/2 140/5/2 142/5/2
f 137/5/2 141/5/2 143/5/2
f 143/5/2 141/5/2 144/5/2
f 142/5/2 140/5/2 145/5/2
f 145/5/2 140/5/2 146/5/2
f 143/3/2 144/3/2 147/3/2
f 147/3/2 144/3/2 148/3/2
f 149/3/2 150/3/2 151/3/2
f 151/3/2 150/3/2 152/3/2
f 145/3/2 146/3/2 153/3/2
f 153/3/2 146/3/2 154/3/2
f 151/4/2 152/4/2 155/4/2
f 153/4/2 154/4/2 156/4/2
f 151/4/2 155/4/2 157/4/2
f 157/4/2 155/4/2 158/4/2
f 156/4/2 154/4/2 159/4/2
f 159/4/2 154/4/2 160/4/2
f 157/2/2 158/2/2 161/2/2
f 161/2/2 158/2/2 162/2/2
f 159/2/2 160/2/2 163/2/2
f 163/2/2 160/2/2 164/2/2
f 165/2/2 166/2/2 169/2/2
f 169/2/2 166/2/2 170/2/2
f 167/2/2 168/2/2 171/2/2
f 171/2/2 168/2/2 172/2/2
f 173/5/2 174/5/2 175/5/2
f 175/5/2 174/5/2 176/5/2
f 175/3/2 176/3/2 177/3/2
f 177/3/2 176/3/2 178/3/2
f 179/3/2 180/3/2 181/3/2
f 181/3/2 180/3/2 182/3/2
f 181/4/2 182/4/2 183/4/2
f 183/4/2 182/4/2 184/4/2
f 186/1/2 187/1/2 189/1/2
f 187/1/2 188/1/2 189/1/2
f 185/1/2 186/1/2 189/1/2
f 189/1/2 188/1/2 190/1/2
f 190/1/2 188/1/2 191/1/2
f 191/1/2 188/1/2 192/1/2
f 190/2/2 191/2/2 193/2/2
f 193/2/2 191/2/2 194/2/2
f 195/1/2 196/1/2 197/1/2
f 197/1/2 196/1/2 198/1/2
f 199/2/2 200/2/2 201/2/2
f 201/2/2 200/2/2 202/2/2
f 203/1/2 204/1/2 205/1/2
f 205/1/2 204/1/2 206/1/2
f 207/2/2 208/2/2 209/2/2
f 209/2/2 208/2/2 210/2/2
f 211/1/2 212/1/2 213/1/2
f 213/1/2 212/1/2 214/1/2
f 215/2/2 216/2/2 217/2/2
f 217/2/2 216/2/2 218/2/2
f 219/1/2 220/1/2 221/1/2
f 221/1/2 220/1/2 222/1/2
f 223/2/2 224/2/2 225/2/2
f 225/2/2 224/2/2 226/2/2
f 227/1/2 228/1/2 229/1/2
f 229/1/2 228/1/2 230/1/2
f 231/2/2 232/2/2 233/2/2
f 233/2/2 232/2/2 234/2/2
f 235/1/2 236/1/2 237/1/2
f 237/1/2 236/1/2 238/1/2
f 239/2/2 240/2/2 241/2/2
f 241/2/2 240/2/2 242/2/2
f 243/1/2 244/1/2 245/1/2
f 245/1/2 244/1/2 246/1/2
f 247/2/2 248/2/2 249/2/2
f 249/2/2 248/2/2 250/2/2
f 251/5/2 252/5/2 253/5/2
f 253/5/2 252/5/2 254/5/2
f 253/2/2 254/2/2 255/2/2
f 255/2/2 254/2/2 256/2/2
f 253/2/2 255/2/2 257/2/2
f 255/4/2 256/4/2 258/4/2
f 257/2/2 255/2/2 258/2/2
f 256/2/2 254/2/2 259/2/2
f 258/4/2 256/4/2 259/4/2
f 259/2/2 254/2/2 260/2/2
f 257/4/2 258/4/2 261/4/2
f 258/4/2 259/4/2 261/4/2
f 259/4/2 260/4/2 261/4/2
f 261/4/2 260/4/2 262/4/2
f 261/2/2 262/2/2 263/2/2
f 263/2/2 262/2/2 264/2/2
f 263/1/2 264/1/2 265/1/2
f 265/1/2 264/1/2 266/1/2
f 265/2/2 266/2/2 267/2/2
f 267/2/2 266/2/2 268/2/2
f 276/5/3 270/5/3 269/5/3
f 277/3/3 271/3/3 270/3/3
f 277/5/3 270/5/3 276/5/3
f 278/3/3 271/3/3 277/3/3
f 279/3/3 271/3/3 278/3/3
f 280/4/3 272/4/3 271/4/3
f 280/3/3 271/3/3 279/3/3
f 281/2/3 273/2/3 272/2/3
f 281/4/3 272/4/3 280/4/3
f 282/1/3 274/1/3 273/1/3
f 282/2/3 273/2/3 281/2/3
f 283/2/3 275/2/3 274/2/3
f 283/1/3 274/1/3 282/1/3
f 284/2/3 275/2/3 283/2/3
f 285/1/3 283/1/3 282/1/3
f 286/1/3 283/1/3 285/1/3
f 291/3/3 279/3/3 278/3/3
f 292/3/3 279/3/3 291/3/3
f 295/1/3 288/1/3 287/1/3
f 296/1/3 288/1/3 295/1/3
f 298/5/3 290/5/3 289/5/3
f 299/2/3 291/2/3 290/2/3
f 299/5/3 290/5/3 298/5/3
f 299/2/3 292/2/3 291/2/3
f 299/2/3 293/2/3 292/2/3
f 300/4/3 294/4/3 293/4/3
f 300/2/3 293/2/3 299/2/3
f 301/2/3 295/2/3 294/2/3
f 301/4/3 294/4/3 300/4/3
f 302/1/3 296/1/3 295/1/3
f 302/2/3 295/2/3 301/2/3
f 303/2/3 297/2/3 296/2/3
f 303/1/3 296/1/3 302/1/3
f 304/2/3 297/2/3 303/2/3
f 316/5/3 306/5/3 305/5/3
f 317/3/3 307/3/3 306/3/3
f 317/5/3 306/5/3 316/5/3
f 317/3/3 308/3/3 307/3/3
f 318/3/3 308/3/3 317/3/3
f 319/3/3 310/3/3 309/3/3
f 319/3/3 311/3/3 310/3/3
f 320/4/3 313/4/3 312/4/3
f 320/3/3 311/3/3 319/3/3
f 320/4/3 312/4/3 311/4/3
f 321/4/3 313/4/3 320/4/3
f 322/4/3 313/4/3 321/4/3
f 323/2/3 315/2/3 314/2/3
f 324/2/3 315/2/3 323/2/3
f 326/1/3 322/1/3 321/1/3
f 327/1/3 322/1/3 326/1/3
f 329/2/3 326/2/3 325/2/3
f 330/2/3 326/2/3 329/2/3
f 332/1/3 329/1/3 328/1/3
f 333/1/3 329/1/3 332/1/3
f 335/2/3 332/2/3 331/2/3
f 336/2/3 332/2/3 335/2/3
f 338/1/3 335/1/3 334/1/3
f 339/1/3 335/1/3 338/1/3
f 341/2/3 338/2/3 337/2/3
f 342/2/3 338/2/3 341/2/3
f 344/1/3 341/1/3 340/1/3
f 345/1/3 341/1/3 344/1/3
f 346/2/3 344/2/3 343/2/3
f 347/2/3 344/2/3 346/2/3
f 349/1/3 348/1/3 347/1/3
f 350/1/3 348/1/3 349/1/3
f 352/2/3 351/2/3 350/2/3
f 353/2/3 351/2/3 352/2/3
f 355/1/3 354/1/3 353/1/3
f 356/1/3 354/1/3 355/1/3
f 358/2/3 357/2/3 356/2/3
f 359/2/3 357/2/3 358/2/3
f 361/1/3 360/1/3 359/1/3
f 362/1/3 360/1/3 361/1/3
f 364/2/3 363/2/3 362/2/3
f 365/2/3 363/2/3 364/2/3
f 369/3/3 308/3/3 318/3/3
f 370/3/3 319/3/3 309/3/3
f 372/1/3 366/1/3 365/1/3
f 373/1/3 366/1/3 372/1/3
f 376/5/3 368/5/3 367/5/3
f 377/3/3 369/3/3 368/3/3
f 377/5/3 368/5/3 376/5/3
f 378/3/3 369/3/3 377/3/3
f 379/3/3 308/3/3 369/3/3
f 379/3/3 369/3/3 378/3/3
f 380/3/3 371/3/3 370/3/3
f 380/3/3 370/3/3 309/3/3
f 381/3/3 371/3/3 380/3/3
f 382/4/3 373/4/3 372/4/3
f 382/3/3 371/3/3 381/3/3
f 382/4/3 372/4/3 371/4/3
f 383/4/3 373/4/3 382/4/3
f 384/4/3 373/4/3 383/4/3
f 385/2/3 375/2/3 374/2/3
f 386/2/3 375/2/3 385/2/3
f 387/5/4 388/5/4 396/5/4
f 388/3/4 389/3/4 397/3/4
f 396/5/4 388/5/4 397/5/4
f 389/3/4 390/3/4 397/3/4
f 390/3/4 391/3/4 397/3/4
f 397/3/4 391/3/4 398/3/4
f 398/3/4 391/3/4 399/3/4
f 392/4/4 393/4/4 400/4/4
f 399/3/4 391/3/4 400/3/4
f 391/4/4 392/4/4 400/4/4
f 400/4/4 393/4/4 401/4/4
f 401/4/4 393/4/4 402/4/4
f 394/2/4 395/2/4 403/2/4
f 403/2/4 395/2/4 404/2/4
f 401/1/4 402/1/4 406/1/4
f 406/1/4 402/1/4 407/1/4
f 405/2/4 406/2/4 409/2/4
f 409/2/4 406/2/4 410/2/4
f 408/1/4 409/1/4 412/1/4
f 412/1/4 409/1/4 413/1/4
f 411/2/4 412/2/4 415/2/4
f 415/2/4 412/2/4 416/2/4
f 414/1/4 415/1/4 418/1/4
f 418/1/4 415/1/4 419/1/4
f 417/2/4 418/2/4 421/2/4
f 421/2/4 418/2/4 422/2/4
f 420/1/4 421/1/4 424/1/4
f 424/1/4 421/1/4 425/1/4
f 423/2/4 424/2/4 426/2/4
f 426/2/4 424/2/4 427/2/4
f 427/1/4 428/1/4 429/1/4
f 429/1/4 428/1/4 430/1/4
f 430/2/4 431/2/4 432/2/4
f 432/2/4 431/2/4 433/2/4
f 433/1/4 434/1/4 435/1/4
f 435/1/4 434/1/4 436/1/4
f 436/2/4 437/2/4 438/2/4
f 438/2/4 437/2/4 439/2/4
f 439/1/4 440/1/4 441/1/4
f 441/1/4 440/1/4 442/1/4
f 442/2/4 443/2/4 444/2/4
f 444/2/4 443/2/4 445/2/4
f 398/3/4 399/3/4 449/3/4
f 449/3/4 399/3/4 450/3/4
f 445/1/4 446/1/4 452/1/4
f 452/1/4 446/1/4 453/1/4
f 447/5/4 448/5/4 456/5/4
f 450/3/4 451/3/4 457/3/4
f 456/5/4 448/5/4 457/5/4
f 448/3/4 449/3/4 457/3/4
f 449/3/4 450/3/4 457/3/4
f 457/3/4 451/3/4 458/3/4
f 458/3/4 451/3/4 459/3/4
f 452/4/4 453/4/4 460/4/4
f 459/3/4 451/3/4 460/3/4
f 451/4/4 452/4/4 460/4/4
f 460/4/4 453/4/4 461/4/4
f 461/4/4 453/4/4 462/4/4
f 454/2/4 455/2/4 463/2/4
f 463/2/4 455/2/4 464/2/4
f 465/5/4 466/5/4 472/5/4
f 466/3/4 467/3/4 473/3/4
f 472/5/4 466/5/4 473/5/4
f 467/4/4 468/4/4 474/4/4
f 473/3/4 467/3/4 474/3/4
f 468/2/4 469/2/4 475/2/4
f 474/4/4 468/4/4 475/4/4
f 469/1/4 470/1/4 476/1/4
f 475/2/4 469/2/4 476/2/4
f 470/2/4 471/2/4 477/2/4
f 476/1/4 470/1/4 477/1/4
f 477/2/4 471/2/4 478/2/4
f 476/1/4 477/1/4 479/1/4
f 479/1/4 477/1/4 480/1/4
f 481/1/4 482/1/4 487/1/4
f 487/1/4 482/1/4 488/1/4
f 483/5/4 484/5/4 490/5/4
f 484/2/4 485/2/4 491/2/4
f 490/5/4 484/5/4 491/5/4
f 485/4/4 486/4/4 492/4/4
f 491/2/4 485/2/4 492/2/4
f 486/2/4 487/2/4 493/2/4
f 492/4/4 486/4/4 493/4/4
f 487/1/4 488/1/4 494/1/4
f 493/2/4 487/2/4 494/2/4
f 488/2/4 489/2/4 495/2/4
f 494/1/4 488/1/4 495/1/4
f 495/2/4 489/2/4 496/2/4
f 501/5/5 498/5/5 497/5/5
f 504/5/5 500/5/5 499/5/5
f 505/5/5 502/5/5 501/5/5
f 505/5/5 501/5/5 497/5/5
f 506/5/5 502/5/5 505/5/5
f 507/5/5 504/5/5 503/5/5
f 508/5/5 500/5/5 504/5/5
f 508/5/5 504/5/5 507/5/5
f 509/5/5 505/5/5 497/5/5
f 510/5/5 505/5/5 509/5/5
f 511/5/5 500/5/5 508/5/5
f 512/5/5 500/5/5 511/5/5
f 515/3/5 514/3/5 513/3/5
f 516/3/5 514/3/5 515/3/5
f 519/3/5 518/3/5 517/3/5
f 520/3/5 518/3/5 519/3/5
f 523/2/5 522/2/5 521/2/5
f 524/2/5 522/2/5 523/2/5
f 529/1/5 526/1/5 525/1/5
f 530/1/5 526/1/5 529/1/5
f 531/1/5 528/1/5 527/1/5
f 532/1/5 528/1/5 531/1/5
f 537/2/5 534/2/5 533/2/5
f 538/2/5 534/2/5 537/2/5
f 539/2/5 536/2/5 535/2/5
f 540/2/5 536/2/5 539/2/5
f 545/1/5 542/1/5 541/1/5
f 546/1/5 542/1/5 545/1/5
f 547/1/5 544/1/5 543/1/5
f 548/1/5 544/1/5 547/1/5
f 553/2/5 550/2/5 549/2/5
f 554/2/5 550/2/5 553/2/5
f 555/2/5 552/2/5 551/2/5
f 556/2/5 552/2/5 555/2/5
f 561/1/5 558/1/5 557/1/5
f 562/1/5 558/1/5 561/1/5
f 563/1/5 560/1/5 559/1/5
f 564/1/5 560/1/5 563/1/5
f 569/2/5 566/2/5 565/2/5
f 570/2/5 566/2/5 569/2/5
f 571/2/5 568/2/5 567/2/5
f 572/2/5 568/2/5 571/2/5
f 577/1/5 574/1/5 573/1/5
f 578/1/5 574/1/5 577/1/5
f 579/1/5 576/1/5 575/1/5
f 580/1/5 576/1/5 579/1/5
f 585/1/5 582/1/5 581/1/5
f 586/1/5 582/1/5 585/1/5
f 587/1/5 584/1/5 583/1/5
f 588/1/5 584/1/5 587/1/5
f 593/1/5 590/1/5 589/1/5
f 594/1/5 590/1/5 593/1/5
f 595/1/5 592/1/5 591/1/5
f 596/1/5 592/1/5 595/1/5
f 597/3/6 598/3/6 599/3/6
f 599/3/6 598/3/6 600/3/6
f 601/3/6 602/3/6 603/3/6
f 603/3/6 602/3/6 604/3/6
f 605/2/6 606/2/6 607/2/6
f 607/2/6 606/2/6 608/2/6
f 609/1/6 610/1/6 613/1/6
f 613/1/6 610/1/6 614/1/6
f 611/1/6 612/1/6 615/1/6
f 615/1/6 612/1/6 616/1/6
f 617/2/6 618/2/6 621/2/6
f 621/2/6 618/2/6 622/2/6
f 619/2/6 620/2/6 623/2/6
f 623/2/6 620/2/6 624/2/6
f 625/1/6 626/1/6 629/1/6
f 629/1/6 626/1/6 630/1/6
f 627/1/6 628/1/6 631/1/6
f 631/1/6 628/1/6 632/1/6
f 633/2/6 634/2/6 637/2/6
f 637/2/6 634/2/6 638/2/6
f 635/2/6 636/2/6 639/2/6
f 639/2/6 636/2/6 640/2/6
f 641/1/6 642/1/6 645/1/6
f 645/1/6 642/1/6 646/1/6
f 643/1/6 644/1/6 647/1/6
f 647/1/6 644/1/6 648/1/6
f 649/2/6 650/2/6 653/2/6
f 653/2/6 650/2/6 654/2/6
f 651/2/6 652/2/6 655/2/6
f 655/2/6 652/2/6 656/2/6
f 657/1/6 658/1/6 661/1/6
f 661/1/6 658/1/6 662/1/6
f 659/1/6 660/1/6 663/1/6
f 663/1/6 660/1/6 664/1/6
f 665/1/6 666/1/6 669/1/6
f 669/1/6 666/1/6 670/1/6
f 667/1/6 668/1/6 671/1/6
f 671/1/6 668/1/6 672/1/6
f 673/1/6 674/1/6 677/1/6
f 677/1/6 674/1/6 678/1/6
f 675/1/6 676/1/6 679/1/6
f 679/1/6 676/1/6 680/1/6
f 681/2/6 682/2/6 685/2/6
f 683/2/6 684/2/6 688/2/6
f 685/2/6 686/2/6 689/2/6
f 681/2/6 685/2/6 689/2/6
f 689/2/6 686/2/6 690/2/6
f 687/2/6 688/2/6 691/2/6
f 688/2/6 684/2/6 692/2/6
f 691/2/6 688/2/6 692/2/6
f 681/2/6 689/2/6 693/2/6
f 693/2/6 689/2/6 694/2/6
f 692/2/6 684/2/6 695/2/6
f 695/2/6 684/2/6 696/2/6
